<?xml version="1.0" encoding="UTF-8" standalone="no"?>
<svg
   version="1.1"
   x="0px"
   y="0px"
   viewBox="0 0 2048 5120"
   enable-background="new 0 0 64 64"
   xml:space="preserve"
   id="svg4"
   sodipodi:docname="noun-garden-tool-3175004.svg"
   width="2048"
   height="5120"
   xmlns:inkscape="http://www.inkscape.org/namespaces/inkscape"
   xmlns:sodipodi="http://sodipodi.sourceforge.net/DTD/sodipodi-0.dtd"
   xmlns="http://www.w3.org/2000/svg"
   xmlns:svg="http://www.w3.org/2000/svg"><defs
     id="defs4" /><sodipodi:namedview
     id="namedview4"
     pagecolor="#ffffff"
     bordercolor="#000000"
     borderopacity="0.25"
     inkscape:showpageshadow="2"
     inkscape:pageopacity="0.0"
     inkscape:pagecheckerboard="0"
     inkscape:deskcolor="#d1d1d1" /><g
     id="g1"
     transform="translate(-1024)"><rect
       fill="none"
       width="64"
       height="64"
       id="rect1"
       x="0"
       y="0" /></g><g
     id="g3"
     transform="translate(-1024)"><path
       d="m 26,59 c 0,2.757 2.243,5 5,5 h 2 c 2.757,0 5,-2.243 5,-5 V 44.667 H 26 Z"
       id="path1" /><path
       d="M 38,35.333 H 26 c -1.103,0 -2,0.897 -2,2 v 3.334 c 0,1.103 0.897,2 2,2 h 12 c 1.103,0 2,-0.897 2,-2 v -3.334 c 0,-1.103 -0.897,-2 -2,-2 z"
       id="path2" /><rect
       x="28"
       y="30"
       width="8"
       height="3.3329999"
       id="rect2" /><path
       d="M 46,0 H 42 C 40.897,0 40,0.913 40,2.035 V 13.449 L 36,13.414 V 2.035 C 36,0.913 35.103,0 34,0 H 30 C 28.897,0 28,0.913 28,2.035 V 13.449 L 24,13.414 V 2.035 C 24,0.913 23.103,0 22,0 h -4 c -1.103,0 -2,0.913 -2,2.035 v 20.131 c 0,0.672 0.327,1.303 0.882,1.692 L 28.688,32 h 6.623 L 47.124,23.853 C 47.673,23.468 48,22.837 48,22.166 V 2.035 C 48,0.913 47.103,0 46,0 Z"
       id="path3" /></g><text
     x="-1024"
     y="79"
     fill="#000000"
     font-size="5px"
     font-weight="bold"
     font-family="'Helvetica Neue', Helvetica, Arial-Unicode, Arial, Sans-serif"
     id="text3">Created by AmruID</text><text
     x="-1024"
     y="84"
     fill="#000000"
     font-size="5px"
     font-weight="bold"
     font-family="'Helvetica Neue', Helvetica, Arial-Unicode, Arial, Sans-serif"
     id="text4">from the Noun Project</text></svg>
