<?xml version="1.0" encoding="UTF-8" standalone="no"?>
<svg
   version="1.1"
   viewBox="-5 -10 9625 9282.3164"
   id="svg2"
   sodipodi:docname="noun-fence-7619347.svg"
   width="9625"
   height="9282.3164"
   xmlns:inkscape="http://www.inkscape.org/namespaces/inkscape"
   xmlns:sodipodi="http://sodipodi.sourceforge.net/DTD/sodipodi-0.dtd"
   xmlns="http://www.w3.org/2000/svg"
   xmlns:svg="http://www.w3.org/2000/svg">
  <defs
     id="defs2" />
  <sodipodi:namedview
     id="namedview2"
     pagecolor="#ffffff"
     bordercolor="#000000"
     borderopacity="0.25"
     inkscape:showpageshadow="2"
     inkscape:pageopacity="0.0"
     inkscape:pagecheckerboard="0"
     inkscape:deskcolor="#d1d1d1" />
  <path
     d="m -1144.6835,-3432.3755 -9.375,-9.375 c -1.2188,-1.2188 -3.2188,-1.2188 -4.4375,0 l -9.375,9.375 c -0.5625,0.5938 -0.9062,1.375 -0.9062,2.2188 v 9.375 h -6.25 v -9.375 c 0,-0.8437 -0.3438,-1.625 -0.9063,-2.2188 l -9.375,-9.375 c -1.2188,-1.2188 -3.2188,-1.2188 -4.4375,0 l -9.375,9.375 c -0.5625,0.5938 -0.9062,1.375 -0.9062,2.2188 v 9.375 h -6.25 v -9.375 c 0,-0.8437 -0.3438,-1.625 -0.9063,-2.2188 l -9.375,-9.375 c -1.2188,-1.2188 -3.2188,-1.2188 -4.4375,0 l -9.375,9.375 c -0.5625,0.5938 -0.9062,1.375 -0.9062,2.2188 v 50 c 0,3.4375 2.8125,6.25 6.25,6.25 h 12.5 c 3.4375,0 6.25,-2.8125 6.25,-6.25 v -9.375 h 6.25 v 9.375 c 0,3.4375 2.8125,6.25 6.25,6.25 h 12.5 c 3.4375,0 6.25,-2.8125 6.25,-6.25 v -9.375 h 6.25 v 9.375 c 0,3.4375 2.8125,6.25 6.25,6.25 h 12.5 c 3.4375,0 6.25,-2.8125 6.25,-6.25 v -50 c 0,-0.8437 -0.3438,-1.625 -0.9063,-2.2188 z m -55.344,36.594 h -6.25 v -18.75 h 6.25 z m 31.25,0 h -6.25 v -18.75 h 6.25 z"
     id="path1" />
</svg>
