<?xml version="1.0" encoding="UTF-8" standalone="no"?>
<svg
   version="1.1"
   x="0px"
   y="0px"
   viewBox="0 0 480 540"
   xml:space="preserve"
   id="svg4"
   sodipodi:docname="noun-list-5772292.svg"
   width="480"
   height="540"
   xmlns:inkscape="http://www.inkscape.org/namespaces/inkscape"
   xmlns:sodipodi="http://sodipodi.sourceforge.net/DTD/sodipodi-0.dtd"
   xmlns="http://www.w3.org/2000/svg"
   xmlns:svg="http://www.w3.org/2000/svg"><defs
     id="defs4" /><sodipodi:namedview
     id="namedview4"
     pagecolor="#ffffff"
     bordercolor="#000000"
     borderopacity="0.25"
     inkscape:showpageshadow="2"
     inkscape:pageopacity="0.0"
     inkscape:pagecheckerboard="0"
     inkscape:deskcolor="#d1d1d1" /><g
     id="g3"
     transform="translate(-48,-90)"><circle
       cx="4"
       cy="5"
       r="2"
       id="circle1" /><path
       d="M 10,7 H 20 C 21.1,7 22,6.1 22,5 22,3.9 21.1,3 20,3 H 10 C 8.9,3 8,3.9 8,5 8,6.1 8.9,7 10,7 Z"
       id="path1" /><circle
       cx="4"
       cy="12"
       r="2"
       id="circle2" /><path
       d="M 20,10 H 10 c -1.1,0 -2,0.9 -2,2 0,1.1 0.9,2 2,2 h 10 c 1.1,0 2,-0.9 2,-2 0,-1.1 -0.9,-2 -2,-2 z"
       id="path2" /><circle
       cx="4"
       cy="19"
       r="2"
       id="circle3" /><path
       d="M 20,17 H 10 c -1.1,0 -2,0.9 -2,2 0,1.1 0.9,2 2,2 h 10 c 1.1,0 2,-0.9 2,-2 0,-1.1 -0.9,-2 -2,-2 z"
       id="path3" /></g><text
     x="-48"
     y="-51"
     fill="#000000"
     font-size="5px"
     font-weight="bold"
     font-family="'Helvetica Neue', Helvetica, Arial-Unicode, Arial, Sans-serif"
     id="text3">Created by Mas Dhimas</text><text
     x="-48"
     y="-46"
     fill="#000000"
     font-size="5px"
     font-weight="bold"
     font-family="'Helvetica Neue', Helvetica, Arial-Unicode, Arial, Sans-serif"
     id="text4">from the Noun Project</text></svg>
